<svg width="8" height="7" viewBox="0 0 8 7" fill="none" xmlns="http://www.w3.org/2000/svg">
<path d="M0.127872 5.61553L0.389922 5.89917C0.472394 5.98774 0.582119 6.03654 0.699388 6.03654C0.816592 6.03654 0.926447 5.98774 1.00892 5.89917L3.99821 2.68587L6.99095 5.90273C7.07329 5.99131 7.18315 6.04004 7.30035 6.04004C7.41756 6.04004 7.52748 5.99131 7.60988 5.90273L7.872 5.62085C8.04267 5.43754 8.04267 5.13894 7.872 4.95563L4.30878 1.1118C4.22644 1.02329 4.11672 0.960933 3.99847 0.960933H3.99711C3.87984 0.960933 3.77011 1.02337 3.68777 1.1118L0.127872 4.94522C0.0453992 5.03373 0.000130177 5.15523 0 5.28121C0 5.40727 0.0453992 5.52709 0.127872 5.61553Z" fill="#00241C"/>
</svg>
